<svg xmlns="http://www.w3.org/2000/svg" viewBox="0 0 360 520" role="img" aria-labelledby="title desc">
  <title id="title">Empty Chair Grim Reaper mascot</title>
  <desc id="desc">A gothic Grim Reaper with a scythe perched above a red Setup Guide plaque.</desc>
  <defs>
    <linearGradient id="robe" x1="0" y1="0" x2="1" y2="1"><stop offset="0" stop-color="#171717"/><stop offset="1" stop-color="#050505"/></linearGradient>
    <linearGradient id="red" x1="0" y1="0" x2="1" y2="1"><stop offset="0" stop-color="#7b0d12"/><stop offset="1" stop-color="#d12a2f"/></linearGradient>
    <filter id="shadow" x="-20%" y="-20%" width="140%" height="160%"><feDropShadow dx="0" dy="12" stdDeviation="10" flood-color="#000" flood-opacity=".55"/></filter>
  </defs>
  <g filter="url(#shadow)">
    <circle cx="180" cy="215" r="126" fill="#090909" stroke="#8d1218" stroke-width="3" opacity=".96"/>
    <circle cx="180" cy="215" r="108" fill="none" stroke="#3a0b0e" stroke-width="2" stroke-dasharray="4 9"/>
    <path d="M278 32c-36 58-61 122-75 191" fill="none" stroke="#8a5b2c" stroke-width="9" stroke-linecap="round"/>
    <path d="M278 33c39 4 64 20 74 45-40-6-77 0-111 19 8-27 20-48 37-64z" fill="#d9d9d7" stroke="#7b0d12" stroke-width="4"/>
    <path d="M274 38c26 4 45 12 58 25-26-4-48-1-68 7" fill="none" stroke="#ffffff" stroke-opacity=".4" stroke-width="2"/>

    <path d="M101 316c8-87 30-158 80-185 42 19 68 91 78 187z" fill="url(#robe)" stroke="#2e2e2e" stroke-width="3"/>
    <path d="M139 150c11-38 32-61 43-61s32 23 42 61c-21-11-61-11-85 0z" fill="#050505"/>
    <ellipse cx="181" cy="156" rx="39" ry="48" fill="#e7e0d5"/>
    <ellipse cx="164" cy="153" rx="10" ry="13" fill="#070707"/>
    <ellipse cx="198" cy="153" rx="10" ry="13" fill="#070707"/>
    <path d="M176 170h10l-5 9z" fill="#111"/>
    <path d="M158 188c16 10 31 10 46 0" fill="none" stroke="#111" stroke-width="4" stroke-linecap="round"/>
    <path d="M164 186v10M175 189v11M187 189v11M198 186v10" stroke="#111" stroke-width="2"/>
    <path d="M121 252c25-8 43 5 53 25l-19 18c-13-18-27-20-44-12z" fill="#0b0b0b" stroke="#2b2b2b" stroke-width="2"/>
    <path d="M240 252c-25-8-43 5-53 25l19 18c13-18 27-20 44-12z" fill="#0b0b0b" stroke="#2b2b2b" stroke-width="2"/>

    <g stroke="#e8e2d7" stroke-width="5" stroke-linecap="round">
      <path d="M137 286l-12 39M149 290l-6 41M159 293l1 38M170 296l7 32"/>
      <path d="M225 286l12 39M213 290l6 41M203 293l-1 38M192 296l-7 32"/>
    </g>

    <path d="M99 318c32 18 55 42 81 79 27-38 50-62 82-79l-21 114H119z" fill="#090909" stroke="#252525" stroke-width="3"/>
    <path d="M132 406l-19 58h37l13-47M228 406l19 58h-37l-13-47" fill="#101010" stroke="#2a2a2a" stroke-width="3"/>
    <path d="M111 462h46l-6 23h-58zM203 462h46l18 23h-58z" fill="#f1f1ef" stroke="#111" stroke-width="4"/>
    <path d="M103 470h44M215 470h42" stroke="#111" stroke-width="3"/>

    <rect x="28" y="365" width="304" height="112" rx="12" fill="url(#red)" stroke="#f14a4f" stroke-width="2"/>
    <rect x="38" y="375" width="284" height="92" rx="8" fill="#140506" stroke="#7f1a1e" stroke-width="2"/>
    <text x="180" y="414" text-anchor="middle" fill="#f0e7da" font-family="Georgia,serif" font-size="28" font-weight="700">SETUP GUIDE</text>
    <text x="180" y="443" text-anchor="middle" fill="#ef3b40" font-family="Arial,sans-serif" font-size="14" font-weight="700" letter-spacing="3">START HERE  →</text>
  </g>
</svg>